<?xml version="1.0" standalone="no"?>
<!DOCTYPE svg PUBLIC "-//W3C//DTD SVG 20010904//EN"
 "http://www.w3.org/TR/2001/REC-SVG-20010904/DTD/svg10.dtd">
<svg version="1.0" xmlns="http://www.w3.org/2000/svg"
 width="500.000000pt" height="500.000000pt" viewBox="0 0 500.000000 500.000000"
 preserveAspectRatio="xMidYMid meet">

<g transform="translate(0.000000,500.000000) scale(0.100000,-0.100000)"
fill="#000000" stroke="none">
<path d="M3180 3716 l-44 -96 -185 0 -186 0 -259 -612 c-143 -337 -267 -628
-276 -646 l-16 -33 -284 640 -285 641 -206 0 -207 0 329 -722 c181 -398 389
-855 462 -1015 l132 -293 49 0 c34 0 47 -4 43 -12 -2 -7 -28 -68 -56 -134 -53
-126 -63 -161 -46 -166 10 -3 65 117 261 572 l129 299 44 -50 c77 -88 168
-146 443 -285 236 -119 272 -140 312 -185 113 -125 78 -280 -79 -350 -75 -34
-224 -38 -336 -10 -103 26 -240 92 -338 163 -40 29 -82 59 -92 67 -18 13 -19
8 -19 -177 l0 -191 67 -38 c99 -55 237 -109 328 -128 122 -26 366 -24 468 3
208 57 362 188 423 361 32 90 34 277 4 373 -37 121 -135 240 -268 326 -61 39
-83 51 -382 195 -168 81 -227 126 -261 200 -46 103 -3 195 116 248 37 17 75
24 146 27 160 7 300 -30 488 -129 52 -27 96 -49 98 -49 3 0 3 77 2 171 l-3
171 -56 28 c-73 36 -186 74 -285 96 -91 19 -329 23 -407 7 -27 -6 -48 -8 -48
-6 0 3 66 156 146 341 170 393 207 483 199 490 -3 3 -5 -1 -5 -9 0 -11 -2 -11
-9 -1 -5 9 -22 -18 -51 -82z"/>
</g>
</svg>
